<svg width="62" height="62" viewBox="0 0 62 62" fill="none" xmlns="http://www.w3.org/2000/svg">
<path d="M18.0827 5.16699H43.916C45.2863 5.16699 46.6005 5.71134 47.5694 6.68027C48.5383 7.64921 49.0827 8.96337 49.0827 10.3337V23.2503H12.916V10.3337C12.916 8.96337 13.4604 7.64921 14.4293 6.68027C15.3982 5.71134 16.7124 5.16699 18.0827 5.16699ZM49.0827 49.0837C49.0827 50.4539 48.5383 51.7681 47.5694 52.737C46.6005 53.706 45.2863 54.2503 43.916 54.2503V56.8337H38.7494V54.2503H23.2494V56.8337H18.0827V54.2503C16.7124 54.2503 15.3982 53.706 14.4293 52.737C13.4604 51.7681 12.916 50.4539 12.916 49.0837V25.8337H49.0827V49.0837ZM20.666 12.917V18.0837H25.8327V12.917H20.666ZM20.666 31.0003V38.7503H25.8327V31.0003H20.666Z" fill="#F9F9F9"/>
</svg>
