<svg width="34" height="34" viewBox="0 0 34 34" fill="none" xmlns="http://www.w3.org/2000/svg">
<path d="M19.5783 31.1667H14.4217C14.0986 31.1667 13.7852 31.0563 13.5334 30.8538C13.2817 30.6513 13.1067 30.3688 13.0376 30.0532L12.461 27.3842C11.6918 27.0471 10.9625 26.6257 10.2864 26.1276L7.684 26.9563C7.37596 27.0546 7.04359 27.0445 6.74209 26.9277C6.44058 26.811 6.18807 26.5946 6.0265 26.3146L3.4425 21.8507C3.28262 21.5704 3.22261 21.2441 3.27228 20.9252C3.32194 20.6064 3.47835 20.3138 3.71592 20.0954L5.73467 18.2537C5.64286 17.4195 5.64286 16.5777 5.73467 15.7434L3.71592 13.906C3.47802 13.6875 3.32139 13.3947 3.27172 13.0755C3.22204 12.7564 3.28226 12.4298 3.4425 12.1493L6.02083 7.68258C6.1824 7.40253 6.43491 7.18617 6.73642 7.06943C7.03793 6.95269 7.3703 6.9426 7.67833 7.04083L10.2807 7.86958C10.6264 7.61458 10.9862 7.37658 11.3574 7.16125C11.7158 6.96008 12.0842 6.77733 12.461 6.61442L13.039 3.94825C13.1078 3.63261 13.2824 3.34997 13.5339 3.14719C13.7854 2.94441 14.0986 2.83367 14.4217 2.83333H19.5783C19.9014 2.83367 20.2146 2.94441 20.4661 3.14719C20.7176 3.34997 20.8922 3.63261 20.961 3.94825L21.5447 6.61583C22.3134 6.95286 23.0423 7.37431 23.7178 7.87242L26.3217 7.04367C26.6295 6.9458 26.9616 6.95607 27.2628 7.07279C27.564 7.18951 27.8162 7.40567 27.9777 7.68542L30.5561 12.1522C30.8847 12.7287 30.7714 13.4583 30.2827 13.9074L28.2639 15.7491C28.3557 16.5833 28.3557 17.4252 28.2639 18.2594L30.2827 20.1011C30.7714 20.5516 30.8847 21.2798 30.5561 21.8563L27.9777 26.3231C27.8162 26.6031 27.5637 26.8195 27.2622 26.9362C26.9607 27.053 26.6283 27.0631 26.3202 26.9648L23.7178 26.1361C23.0423 26.6338 22.3134 27.0548 21.5447 27.3912L20.961 30.0532C20.8919 30.3685 20.7172 30.6509 20.4657 30.8534C20.2143 31.0559 19.9012 31.1664 19.5783 31.1667ZM10.795 22.9911L11.9567 23.8411C12.2187 24.0338 12.4907 24.2108 12.7741 24.3723C13.0404 24.5268 13.3124 24.6656 13.5943 24.7917L14.9161 25.3711L15.5635 28.3333H18.4393L19.0867 25.3697L20.4085 24.7903C20.9851 24.5353 21.5333 24.2193 22.0419 23.8468L23.2036 22.9967L26.0964 23.9176L27.5343 21.4271L25.2917 19.3828L25.4504 17.9492C25.5212 17.3216 25.5212 16.6883 25.4504 16.0622L25.2917 14.6285L27.5357 12.58L26.0964 10.0881L23.205 11.0089L22.0419 10.1589C21.5331 9.78448 20.9854 9.46579 20.4085 9.20833L19.0867 8.62892L18.4393 5.66667H15.5635L14.9118 8.63033L13.5943 9.20833C13.0166 9.46136 12.4688 9.7778 11.9609 10.1518L10.7978 11.0018L7.90783 10.081L6.46708 12.58L8.70967 14.6214L8.551 16.0565C8.48017 16.6841 8.48017 17.3173 8.551 17.9435L8.70967 19.3772L6.46708 21.4214L7.905 23.9119L10.795 22.9911V22.9911ZM16.9943 22.6667C15.4914 22.6667 14.0501 22.0696 12.9874 21.0069C11.9247 19.9442 11.3277 18.5029 11.3277 17C11.3277 15.4971 11.9247 14.0558 12.9874 12.9931C14.0501 11.9304 15.4914 11.3333 16.9943 11.3333C18.4972 11.3333 19.9386 11.9304 21.0013 12.9931C22.064 14.0558 22.661 15.4971 22.661 17C22.661 18.5029 22.064 19.9442 21.0013 21.0069C19.9386 22.0696 18.4972 22.6667 16.9943 22.6667ZM16.9943 14.1667C16.4395 14.1672 15.8971 14.3307 15.4343 14.6367C14.9715 14.9428 14.6088 15.378 14.3911 15.8883C14.1734 16.3987 14.1103 16.9617 14.2097 17.5075C14.3091 18.0534 14.5665 18.558 14.9501 18.9589C15.3337 19.3598 15.8266 19.6392 16.3675 19.7625C16.9085 19.8858 17.4737 19.8475 17.9932 19.6525C18.5126 19.4575 18.9633 19.1142 19.2894 18.6654C19.6155 18.2165 19.8027 17.6818 19.8277 17.1275V17.6942V17C19.8277 16.2486 19.5292 15.5279 18.9978 14.9965C18.4664 14.4652 17.7458 14.1667 16.9943 14.1667Z" fill="white"/>
</svg>
