<svg width="32" height="37" viewBox="0 0 32 37" fill="none" xmlns="http://www.w3.org/2000/svg">
<path fill-rule="evenodd" clip-rule="evenodd" d="M21.7143 8C21.7143 6.48448 21.1122 5.03103 20.0406 3.95939C18.969 2.88775 17.5155 2.28571 16 2.28571C14.4845 2.28571 13.031 2.88775 11.9594 3.95939C10.8878 5.03103 10.2857 6.48448 10.2857 8V9.14286H21.7143V8ZM24 8V9.14286H32V32C32 33.2124 31.5184 34.3752 30.6611 35.2325C29.8038 36.0898 28.641 36.5714 27.4286 36.5714H4.57143C3.35901 36.5714 2.19625 36.0898 1.33894 35.2325C0.481631 34.3752 0 33.2124 0 32V9.14286H8V8C8 5.87827 8.84286 3.84344 10.3431 2.34315C11.8434 0.842855 13.8783 0 16 0C18.1217 0 20.1566 0.842855 21.6569 2.34315C23.1571 3.84344 24 5.87827 24 8ZM16 18.2697C19.8034 14.3589 29.3143 21.2023 16 30C2.68571 21.2 12.1966 14.3589 16 18.2697Z" fill="#F9F9F9"/>
</svg>
